<?xml version="1.0" standalone="no"?>
<!DOCTYPE svg PUBLIC "-//W3C//DTD SVG 20010904//EN"
 "http://www.w3.org/TR/2001/REC-SVG-20010904/DTD/svg10.dtd">
<svg version="1.0" xmlns="http://www.w3.org/2000/svg"
 width="20.000000pt" height="20.000000pt" viewBox="0 0 128.000000 128.000000"
 preserveAspectRatio="xMidYMid meet">

<g transform="translate(35.000000,128.000000) scale(0.100000,-0.100000) rotate(30,1,1)"
fill="#FFFFFF">
<path d="M464 1035 c-76 -16 -133 -45 -186 -93 -43 -38 -88 -120 -88 -159 0
-17 -6 -23 -22 -23 -12 0 -40 -9 -63 -20 -72 -35 -105 -100 -105 -207 0 -71
19 -126 48 -142 11 -6 38 -13 61 -17 24 -4 41 -12 41 -20 0 -26 62 -84 101
-94 70 -19 155 22 180 87 8 23 9 23 239 23 206 0 230 -2 230 -16 0 -34 43 -87
88 -106 75 -34 163 0 192 74 7 18 32 49 54 69 l41 37 0 99 c0 92 -2 103 -28
142 -43 65 -107 91 -224 91 l-93 0 0 28 c0 38 -52 124 -97 161 -52 43 -126 77
-197 90 -73 13 -95 13 -172 -4z m66 -165 l0 -110 -141 0 -141 0 6 32 c14 72
82 136 179 169 98 34 97 35 97 -91z m147 95 c89 -26 176 -106 189 -173 l7 -32
-142 0 -141 0 0 110 c0 125 -3 122 87 95z m456 -278 c18 -8 38 -21 46 -30 12
-15 11 -17 -12 -17 -29 0 -52 -23 -43 -45 4 -10 19 -15 51 -15 l45 0 0 -58 c0
-33 -6 -66 -13 -76 -13 -17 -15 -16 -36 17 -37 61 -127 85 -191 52 -16 -8 -41
-31 -56 -50 l-26 -35 -227 0 -226 0 -20 37 c-58 108 -204 111 -263 5 -26 -47
-51 -53 -82 -22 -16 16 -20 33 -20 80 0 77 20 124 62 150 32 19 49 20 506 20
373 0 479 -3 505 -13z m-782 -226 c48 -48 36 -111 -26 -137 -89 -37 -164 80
-91 142 38 33 80 31 117 -5z m754 -16 c35 -34 34 -93 0 -125 -55 -52 -145 -12
-145 64 0 75 93 114 145 61z" stroke-width="50" stroke="white"/>
</g>
</svg>
